<svg xmlns="http://www.w3.org/2000/svg" viewBox="0 0 50 50"><defs><style>.cls-1{fill:#1e1e1e;}</style></defs><title>InfographicIcons</title><g id="Layer_4" data-name="Layer 4"><path class="cls-1" d="M45,21.17A5.23,5.23,0,0,0,40.25,16a2.84,2.84,0,0,0,.1-.49,3.5,3.5,0,0,0-3.5-3.5c-.08,0-.15,0-.23,0v0A7,7,0,0,0,24.54,7.22a3.34,3.34,0,0,0-.63-.12,3.42,3.42,0,0,0-1.16.23,5.22,5.22,0,0,0-8.29,3l-.13,0a3.48,3.48,0,0,0-3.24,2.21,7,7,0,0,0-3.83,12,3.36,3.36,0,0,0,2.23,6.15,3.36,3.36,0,0,0,5.35.41,2.35,2.35,0,0,0,1,.17A2.49,2.49,0,0,0,18,32.48a2.51,2.51,0,0,0,1.15-.29c.26.33.51.65.77.93a9.85,9.85,0,0,0,.78.71l.11.09.08,0a4.49,4.49,0,0,0,.52.33l.06,0c.12.05.23.11.38.16l.09,0a46.73,46.73,0,0,0-1.52,8.59A1.75,1.75,0,0,0,22.15,45H26a1.76,1.76,0,0,0,1.29-.57,1.73,1.73,0,0,0,.45-1.34c-.09-1-.25-3.06-.32-5.37h.15a2.38,2.38,0,0,0,.46,0,7.53,7.53,0,0,0,3.08-1.37,11.73,11.73,0,0,0,2.09-1.93,13.37,13.37,0,0,0,1.58-2.26,9.59,9.59,0,0,0,.66-1.52h0a3.25,3.25,0,0,0,2.3,1,3.29,3.29,0,0,0,3.05-2.07,3.31,3.31,0,0,0,.95.15A3.28,3.28,0,0,0,45,26.38a3.23,3.23,0,0,0-.92-2.25A5.19,5.19,0,0,0,45,21.17ZM6.5,19.43A5.5,5.5,0,0,1,11.28,14a1.5,1.5,0,0,0,1.2-.93,2,2,0,0,1,1.71-1.27l.21,0h.06a1.49,1.49,0,0,0,1.46-1.17,3.72,3.72,0,0,1,5.91-2.14,1.48,1.48,0,0,0,.92.31,1.69,1.69,0,0,0,.5-.08,2,2,0,0,1,.61-.15l.06,0,.34.08a1.27,1.27,0,0,0,.28,0,1.48,1.48,0,0,0,1.09-.47,5.44,5.44,0,0,1,4-1.75,5.5,5.5,0,0,1,5.49,5.43V12a1.45,1.45,0,0,0,.47,1.11,1.48,1.48,0,0,0,1,.41h.1l.27,0a2,2,0,0,1,1.86,1.9c0,.12-.06.24-.08.36a1.48,1.48,0,0,0,1.34,1.71,3.71,3.71,0,0,1,2.7,5.85,2.86,2.86,0,0,0-.78-.18,1.7,1.7,0,0,0,.06-.31,2.18,2.18,0,0,0-2.18-2.18.8.8,0,0,0-.15,0v0a4.36,4.36,0,0,0-4.37-4.37,4.31,4.31,0,0,0-3.18,1.39,1.69,1.69,0,0,0-.39-.08,2.2,2.2,0,0,0-.73.14,3.25,3.25,0,0,0-2-.68,3.28,3.28,0,0,0-3.2,2.56l-.08,0a2.2,2.2,0,0,0-2,1.39,4.09,4.09,0,0,0-1.16.34,2.22,2.22,0,0,0-.31-.1,3.34,3.34,0,0,0-3.12-2.08,3.25,3.25,0,0,0-1.71.48,2.27,2.27,0,0,0-.53-.05,4.18,4.18,0,0,0-2.78-1.05A4.25,4.25,0,0,0,10,22.08a2.52,2.52,0,0,0-1.69,1.39A5.46,5.46,0,0,1,6.5,19.43ZM17,30.23a.76.76,0,0,0-.37-.47.72.72,0,0,0-.35-.08.69.69,0,0,0-.25,0,1.08,1.08,0,0,1-.33.07,1,1,0,0,1-.63-.25.78.78,0,0,0-.63-.16.75.75,0,0,0-.52.38,1.86,1.86,0,0,1-3.38-.18.74.74,0,0,0-.91-.44,2,2,0,0,1-.55.09,1.86,1.86,0,0,1-.18-3.72.73.73,0,0,0,.52-.29.76.76,0,0,0,.16-.56c0-.07,0-.14,0-.14a1,1,0,0,1,.94-1l.12,0a.77.77,0,0,0,.57-.21.78.78,0,0,0,.24-.56A2.75,2.75,0,0,1,14.19,20a2.67,2.67,0,0,1,2,.88.8.8,0,0,0,.69.22l.17-.05a1.07,1.07,0,0,1,.34.07.71.71,0,0,0,.7-.11,1.91,1.91,0,0,1,1.13-.39A1.87,1.87,0,0,1,21,22.1a.76.76,0,0,0,.11.26h0a4.34,4.34,0,0,0,1.56,7,.72.72,0,0,0-.25.21A1.87,1.87,0,0,1,20,30a.74.74,0,0,0-.63-.08.75.75,0,0,0-.46.43A1,1,0,0,1,17,30.23Zm6.33,1.14a.91.91,0,0,1,.21.18l.07.11a.91.91,0,0,1,.09.17.8.8,0,0,1,.07.34,1,1,0,0,1-1,1,2.36,2.36,0,0,1-.45-.08h0L22.06,33a3,3,0,0,1-.44-.28c-.23-.19-.43-.39-.62-.58l-.28-.32a3.39,3.39,0,0,0,2.15-.59.59.59,0,0,1,.19.05m3.11,12.19a.26.26,0,0,1-.19.08H22.15a.26.26,0,0,1-.19-.08.26.26,0,0,1-.06-.19h0a44.09,44.09,0,0,1,1.55-8.65A2.49,2.49,0,0,0,24.9,30.8c.06-.13.14-.26.2-.4a3,3,0,0,0,1.06.5h0c-.1.77-.17,1.59-.22,2.43a2.58,2.58,0,0,0-.45.48,2.49,2.49,0,0,0,.4,3.28c0,2.46.21,4.74.34,6.14A.28.28,0,0,1,26.17,43.42Zm1.51-12.53a3.48,3.48,0,0,0,.95-.4,2.2,2.2,0,0,0,1,1.07h0a7.14,7.14,0,0,1-1.07.77,2.89,2.89,0,0,1-1,.38C27.53,32.08,27.6,31.47,27.68,30.89ZM32,33.41a10.48,10.48,0,0,1-1.82,1.69,6,6,0,0,1-2.46,1.11h-.21a.78.78,0,0,1-.22,0,.66.66,0,0,1-.2-.06l-.1-.06L26.88,36a.69.69,0,0,1-.11-.13l-.09-.11a1,1,0,0,1-.11-.31,1,1,0,0,1,.8-1.17h.12a4.14,4.14,0,0,0,1.78-.6A8.74,8.74,0,0,0,31,32.37a9.33,9.33,0,0,0,.81-.85h0a2.18,2.18,0,0,0,.95-1.3,2.32,2.32,0,0,0,.73.15,2,2,0,0,0,.49-.07,8.54,8.54,0,0,1-.5,1.11A11.42,11.42,0,0,1,32,33.41ZM26.92,31Zm14.8-2.83a1.89,1.89,0,0,1-.52-.09,1.59,1.59,0,0,0-.43-.06,1.51,1.51,0,0,0-1.4.94,1.76,1.76,0,0,1-3.2.18,1.54,1.54,0,0,0-1-.77,1.43,1.43,0,0,0-.29,0,1.48,1.48,0,0,0-1,.36.69.69,0,0,1-.43.18l-.22-.06a1.44,1.44,0,0,0-.51-.09,1.56,1.56,0,0,0-.69.17,1.5,1.5,0,0,0-.75.94.67.67,0,0,1-.63.52.68.68,0,0,1-.63-.43A1.53,1.53,0,0,0,28.63,29a1.48,1.48,0,0,0-.78.23,1.78,1.78,0,0,1-.93.27,1.76,1.76,0,0,1-1.42-.73,1.48,1.48,0,0,0-1.18-.6,2.86,2.86,0,0,1-.32-5.7,1.49,1.49,0,0,0,1.2-.93.69.69,0,0,1,.54-.43h.17a1.51,1.51,0,0,0,1.47-1.17,1.78,1.78,0,0,1,1.73-1.39,1.76,1.76,0,0,1,1.07.37,1.45,1.45,0,0,0,.91.31,1.51,1.51,0,0,0,.51-.08l.15,0,.18,0,.28,0a1.47,1.47,0,0,0,1.09-.48,2.87,2.87,0,0,1,5,1.9v.07a1.54,1.54,0,0,0,.47,1.11,1.52,1.52,0,0,0,1,.41H40a.68.68,0,0,1,.57.57,1.29,1.29,0,0,0,0,.19,1.5,1.5,0,0,0,1.34,1.71,1.77,1.77,0,0,1-.17,3.53Z"/></g></svg>