<svg xmlns="http://www.w3.org/2000/svg" viewBox="0 0 50 50"><style><![CDATA[.D{fill:#fff}.E{fill:#010101}]]></style><path d="M16.5 6.31l-1.27 32.43.86.93 1.15-33z" class="D"/><path d="M16.09,39.81a.15.15,0,0,1-.11,0l-.85-.93a.14.14,0,0,1,0-.1L16.35,6.3a.14.14,0,0,1,.21-.12l.74.39a.16.16,0,0,1,.08.13l-1.15,33a.13.13,0,0,1-.09.13Zm-.71-1.12.58.62L17.09,6.78l-.46-.24Z" class="E"/><path d="M16.64,25.79l3.54-.32.07-.85-3.54.13Z" class="D"/><path d="M16.64,25.94a.21.21,0,0,1-.1,0,.15.15,0,0,1,0-.11l.07-1.05a.13.13,0,0,1,.13-.14l3.54-.13a.16.16,0,0,1,.11.05.14.14,0,0,1,0,.11l-.07.85a.14.14,0,0,1-.13.13l-3.53.33Zm.21-1.05-.05.74,3.25-.3,0-.56Z" class="E"/><path d="M27.91,26.2l-1,11.29.83.58,1-12Z" class="D"/><path d="M27.74,38.22a.16.16,0,0,1-.09,0l-.82-.58a.14.14,0,0,1-.06-.13l1-11.29a.16.16,0,0,1,.12-.13l.87-.18a.15.15,0,0,1,.13,0,.18.18,0,0,1,.05.12l-1.05,12a.12.12,0,0,1-.08.12Zm-.68-.8.56.39,1-11.61-.58.12Z" class="E"/><path d="M18,5.24c-.38.2-.23.71-.3,1.06" class="D"/><path d="M17.68 6.45h0a.17.17 0 0 1-.11-.18 1.51 1.51 0 0 0 0-.32.84.84 0 0 1 .35-.84.14.14 0 0 1 .19.06.15.15 0 0 1-.06.2c-.17.09-.19.28-.19.58a2.56 2.56 0 0 1 0 .39.16.16 0 0 1-.18.11z" class="E"/><path d="M17.38 6h13l2.15 19.17-13.4 1z" class="D"/><path d="M19.16 26.35a.14.14 0 0 1-.14-.14L17.23 6a.14.14 0 0 1 0-.11.16.16 0 0 1 .11 0h0 13a.13.13 0 0 1 .14.12l2.16 19.18a.14.14 0 0 1 0 .1.17.17 0 0 1-.1.06l-13.4 1zM17.53 6.17l1.76 19.88 13.11-1-2.12-18.86z" class="E"/><path d="M31 5.43l3.76 37.22-1.21-1.14-3.5-36.06z" class="D"/><path d="M34.77 42.79a.13.13 0 0 1-.1 0l-1.21-1.13a.15.15 0 0 1 0-.09L29.91 5.46a.12.12 0 0 1 0-.11.15.15 0 0 1 .11 0h1a.12.12 0 0 1 .14.13l3.76 37.21a.14.14 0 0 1-.08.15zm-1.07-1.34l.89.83-3.71-36.7h-.67z" class="E"/><path d="M19.24,26l.1.88,12.75-.95-.11-1Z" class="D"/><path d="M19.34,27a.15.15,0,0,1-.15-.13L19.1,26a.11.11,0,0,1,0-.11.12.12,0,0,1,.1-.05L32,24.77a.15.15,0,0,1,.16.13l.11,1a.2.2,0,0,1,0,.11.19.19,0,0,1-.1.05L19.35,27Zm.06-.89.07.59,12.46-.92-.08-.69Z" class="E"/><path d="M17.37,5.6l3.75,39.26L20,43.74,16.39,5.56Z" class="D"/><path d="M21.12 45a.14.14 0 0 1-.1 0l-1.11-1.11a.18.18 0 0 1 0-.09L16.24 5.58a.15.15 0 0 1 0-.11.18.18 0 0 1 .11 0h1a.16.16 0 0 1 .14.13l3.76 39.26a.18.18 0 0 1-.08.15zm-1-1.32l.79.79-3.68-38.73h-.68z" class="E"/><path d="M18.22,6,20,25.21l11.2-.86L29.41,6.74Z" class="D"/><path d="M20,25.35a.15.15,0,0,1-.14-.13L18.07,6a.15.15,0,0,1,0-.11.17.17,0,0,1,.12,0l11.19.72a.16.16,0,0,1,.14.13l1.77,17.62a.15.15,0,0,1,0,.11.12.12,0,0,1-.1.05L20,25.35ZM18.38,6.17l1.73,18.88L31,24.22,29.28,6.87Z" class="E"/><path d="M18.45,6c.66,6.5,1,12.47,2.37,18.48l10.64-.69c-1.14-4-1.24-11.73-2-17.87A.78.78,0,0,0,29,5.23c-3.6.06-7.37-.2-11,0a.76.76,0,0,1,.44.83Z" class="D"/><path d="M20.82 24.66a.15.15 0 0 1-.14-.11 119.28 119.28 0 0 1-2-14.85l-.35-3.66V6c0-.37-.11-.6-.35-.68a.15.15 0 0 1-.1-.16.14.14 0 0 1 .12-.1h6.32 4.66 0a.92.92 0 0 1 .63.84l.61 7c.32 4.26.62 8.28 1.35 10.84a.14.14 0 0 1-.13.18l-10.64.7zM18.6 6l.35 3.65a120.26 120.26 0 0 0 2 14.69l10.33-.68A66.53 66.53 0 0 1 30 13l-.62-7a.69.69 0 0 0-.38-.6h-4.66c-1.94 0-3.95-.07-5.89 0a1.2 1.2 0 0 1 .15.6z" class="E"/></svg>