<svg xmlns="http://www.w3.org/2000/svg" viewBox="0 0 50 50"><path d="M25 5a20 20 0 0 0 0 40 3.33 3.33 0 0 0 3.33-3.33 3.29 3.29 0 0 0-.86-2.24 3.26 3.26 0 0 1-.84-2.21A3.33 3.33 0 0 1 30 33.89h3.92A11.12 11.12 0 0 0 45 22.78C45 13 36 5 25 5zM12.78 25a3.34 3.34 0 1 1 3.33-3.33A3.33 3.33 0 0 1 12.78 25zm6.66-8.89a3.34 3.34 0 1 1 3.34-3.33 3.33 3.33 0 0 1-3.34 3.33zm11.12 0a3.34 3.34 0 1 1 3.33-3.33 3.33 3.33 0 0 1-3.33 3.33zM37.22 25a3.34 3.34 0 1 1 3.34-3.33A3.33 3.33 0 0 1 37.22 25z" fill="#010101"/></svg>