<svg xmlns="http://www.w3.org/2000/svg" xmlns:xlink="http://www.w3.org/1999/xlink" viewBox="0 0 50 50"><style>.E{isolation:isolate}</style><defs><linearGradient id="A" x1="174.3" y1="-349.93" x2="174.49" y2="-355.4" gradientTransform="matrix(0.68, 0, 0, -1, -96.33, -326.59)" xlink:href="#Q"><stop offset="0" stop-color="#e5e5e5" stop-opacity="0"/><stop offset=".05" stop-color="#d5d5d5" stop-opacity=".1"/><stop offset=".27" stop-color="#949495" stop-opacity=".49"/><stop offset=".5" stop-color="#666567" stop-opacity=".78"/><stop offset=".74" stop-color="#4a494b" stop-opacity=".94"/><stop offset="1" stop-color="#414042"/></linearGradient><linearGradient id="B" x1="21.6" y1="25.29" x2="21.99" y2="18.61" xlink:href="#Q"><stop offset="0" stop-color="#e5e5e5" stop-opacity="0"/><stop offset=".31" stop-color="#878585" stop-opacity=".49"/><stop offset=".67" stop-color="#3c393a" stop-opacity=".87"/><stop offset="1" stop-color="#231f20"/></linearGradient><linearGradient id="C" x1="37.36" y1="25.16" x2="39.01" y2="28.6" xlink:href="#Q"><stop offset="0" stop-color="#e5e5e5"/><stop offset=".5" stop-color="#4b4b4b"/><stop offset="1" stop-color="#b9b9b9"/></linearGradient><linearGradient id="D" x1="21.85" y1="18.66" x2="21.52" y2="28.88" xlink:href="#Q"><stop offset="0" stop-color="#fff"/><stop offset="1" stop-color="#fff" stop-opacity="0"/></linearGradient><linearGradient id="E" x1="-82.48" y1="-411.09" x2="-83.36" y2="-411.15" gradientTransform="translate(-138.67 -449.71) rotate(180) scale(1.75 1.15)" xlink:href="#A"/><linearGradient id="F" x1="42.6" y1="23.71" x2="42.6" y2="23.23" xlink:href="#Q"><stop offset="0" stop-color="#e5e5e5"/><stop offset=".22" stop-color="#afaeae"/><stop offset=".49" stop-color="#737172"/><stop offset=".72" stop-color="#484545"/><stop offset=".9" stop-color="#2d292a"/><stop offset="1" stop-color="#231f20"/></linearGradient><linearGradient id="G" y1="24.18" y2="23.71" xlink:href="#F"/><linearGradient id="H" y1="24.65" y2="24.18" xlink:href="#F"/><linearGradient id="I" y1="25.12" y2="24.65" xlink:href="#F"/><linearGradient id="J" y1="25.6" y2="25.12" xlink:href="#F"/><linearGradient id="K" y1="26.07" y2="25.6" xlink:href="#F"/><linearGradient id="L" y1="26.54" y2="26.07" xlink:href="#F"/><linearGradient id="M" y1="27.01" y2="26.54" xlink:href="#F"/><linearGradient id="N" x1="-361.58" y1="-137.88" x2="-363.38" y2="-138.04" gradientTransform="translate(-293.26 -106.47) rotate(180) scale(0.82 0.95)" xlink:href="#D"/><linearGradient id="O" x1="37.19" y1="25.11" x2="39.48" y2="20.78" xlink:href="#Q"><stop offset="0" stop-color="#e5e5e5" stop-opacity="0"/><stop offset=".5" stop-color="#4b4b4b" stop-opacity=".57"/><stop offset="1" stop-color="#b9b9b9" stop-opacity="0"/></linearGradient><path id="P" d="M40.25 23.24L36 19.78v10.57l4.2-3.47v-3.64z"/><linearGradient id="Q" gradientUnits="userSpaceOnUse"/></defs><path d="M6.93,18l29.13,1.74V30.36L6.93,32.09V18Z" fill="url(#A)"/><path d="M6.93 32.16l-.07-.07V18h.07l29.14 1.73.06.08v10.55l-.06.07zm.07-14V32l29-1.72V19.83z" fill="#6c6d6d"/><path d="M6.94,18.07v6.77H36v-5Z" fill="url(#B)"/><use xlink:href="#P" fill="url(#C)"/><path class="E" d="M7.75,18.53v5.3c10.11,2.73,19.34,2.09,28,1.08.06-3.65.07-1,0-4.37a.57.57,0,0,0-.55-.53L7.75,18.53Z" fill="url(#D)"/><path d="M7.26,17.76H5.08V32.24H7.26Z" fill="url(#E)"/><path d="M7.26,32.33H5.08L5,32.24V17.76l.08-.09H7.26l.08.09V32.24Zm-2.09-.17h2V17.84h-2Z" fill="#6c6d6d"/><path d="M40.26,23.23h4.67v.48H40.26Z" fill="url(#F)"/><path d="M40.26,23.71h4.67v.47H40.26Z" fill="url(#G)"/><path d="M40.26,24.18h4.67v.47H40.26Z" fill="url(#H)"/><path d="M40.26,24.65h4.67v.47H40.26Z" fill="url(#I)"/><path d="M40.26,25.12h4.67v.48H40.26Z" fill="url(#J)"/><path d="M40.26,25.6h4.67v.47H40.26Z" fill="url(#K)"/><path d="M40.26,26.07h4.67v.47H40.26Z" fill="url(#L)"/><path d="M40.26,26.54h4.67V27H40.26Z" fill="url(#M)"/><path d="M44.93 27h-4.67l-.07-.07v-3.7l.07-.07h4.67l.07.07v3.71zm-4.6-.14h4.53V23.3h-4.53z" fill="#6c6d6d"/><path d="M6.86,18.05H5.37V31.86H6.86Z" fill="url(#N)"/><use xlink:href="#P" fill="url(#O)"/><path d="M36.1 30.42l-.1-.07V19.78l.14-.07 4.23 3.46v.07 3.64.07zm0-10.42v10.21l4-3.33v-3.6z" fill="#6c6d6d"/></svg>